<svg width="56" height="56" viewBox="0 0 56 56" fill="none" xmlns="http://www.w3.org/2000/svg">
<path d="M40.4445 16.7671L30.9167 9.4949C30.0769 8.86051 29.0524 8.51782 28 8.51782C26.9476 8.51782 25.9231 8.86054 25.0833 9.4949L15.5556 16.7671C15.129 17.0952 15.0476 17.7065 15.3757 18.1331C15.7038 18.5596 16.3151 18.6411 16.7417 18.3129L26.2598 11.0407C27.2928 10.2727 28.7074 10.2727 29.7405 11.0407L39.2587 18.3129C39.6852 18.6338 40.2916 18.5511 40.6173 18.127C40.9418 17.7029 40.8649 17.0965 40.4445 16.7671ZM38.6848 19.9075V32.9838C38.686 34.3607 37.5728 35.4787 36.1959 35.4824H31.4707C30.9348 35.4812 30.4997 35.0461 30.4985 34.5102V27.5295H25.5014V34.5102C25.5002 35.0461 25.0651 35.4812 24.5292 35.4824H19.804C18.4271 35.4787 17.3139 34.3607 17.3152 32.9838V19.9075C17.32 19.1406 17.6749 18.4175 18.2777 17.9436L26.4736 11.6143C27.3729 10.9168 28.6319 10.9216 29.5264 11.6241L37.7223 17.9337V17.9434C38.325 18.4174 38.6799 19.1406 38.6848 19.9075Z" fill="white"/>
<path d="M22.4805 46H21.3008V43.625H18.7617V46H17.582V40.3633H18.7617V42.6523H21.3008V40.3633H22.4805V46ZM25.2422 46.0898C23.9766 46.0898 23.168 45.2773 23.168 43.9023C23.168 42.5469 23.9883 41.7227 25.2422 41.7227C26.4961 41.7227 27.3164 42.543 27.3164 43.9023C27.3164 45.2812 26.5078 46.0898 25.2422 46.0898ZM25.2422 45.2188C25.8008 45.2188 26.1562 44.7461 26.1562 43.9062C26.1562 43.0742 25.7969 42.5938 25.2422 42.5938C24.6875 42.5938 24.3242 43.0742 24.3242 43.9062C24.3242 44.7461 24.6797 45.2188 25.2422 45.2188ZM27.9062 46V41.8125H29.0078V42.5703H29.0312C29.207 42.0664 29.6562 41.7344 30.2266 41.7344C30.832 41.7344 31.2539 42.0469 31.3945 42.5938H31.418C31.6055 42.0664 32.1055 41.7344 32.7188 41.7344C33.5391 41.7344 34.0898 42.2969 34.0898 43.1406V46H32.9492V43.4258C32.9492 42.9414 32.707 42.6758 32.2656 42.6758C31.832 42.6758 31.5469 42.9922 31.5469 43.457V46H30.4492V43.3906C30.4492 42.9414 30.1953 42.6758 29.7734 42.6758C29.3398 42.6758 29.0469 43.0039 29.0469 43.4727V46H27.9062ZM36.6914 42.5664C36.1914 42.5664 35.832 42.9453 35.793 43.4688H37.5703C37.5469 42.9336 37.1992 42.5664 36.6914 42.5664ZM37.5859 44.7188H38.6328C38.5078 45.5391 37.7578 46.0898 36.7227 46.0898C35.4336 46.0898 34.6602 45.2656 34.6602 43.9258C34.6602 42.5898 35.4414 41.7227 36.6797 41.7227C37.8984 41.7227 38.668 42.5469 38.668 43.8203V44.168H35.7812V44.2383C35.7812 44.8359 36.1602 45.2461 36.7422 45.2461C37.1602 45.2461 37.4805 45.0391 37.5859 44.7188Z" fill="white"/>
</svg>
