<svg width="56" height="56" viewBox="0 0 56 56" fill="none" xmlns="http://www.w3.org/2000/svg">
<rect width="56" height="56" rx="4" fill="#979797"/>
<path d="M37.3952 34H19.9893C18.3367 33.9949 17 32.6305 17 30.9498V14.0832C17.002 12.4045 18.3387 11.0431 19.9893 11.041H22.917C23.1186 10.4215 23.6866 10.002 24.3282 10H27.8259C28.4674 10.002 29.0355 10.4215 29.2371 11.041H32.1658C33.8154 11.043 35.152 12.4044 35.1541 14.0832V23.1977H37.3955C38.6488 23.1998 39.6647 24.2337 39.6667 25.5092V31.6966C39.6627 32.9701 38.6468 34 37.3955 34L37.3952 34ZM30.6413 31.6966C30.6423 32.0756 30.9432 32.3819 31.3156 32.3829H37.3953C37.7697 32.3849 38.0746 32.0777 38.0775 31.6966V25.5092C38.0766 25.1262 37.7717 24.8159 37.3953 24.8149H31.3156C31.1428 24.8149 30.977 24.8836 30.8528 25.0069C30.7168 25.1373 30.6403 25.3192 30.6413 25.5092L30.6413 31.6966ZM19.9895 12.6583C19.2169 12.6593 18.5902 13.2971 18.5893 14.0834V30.9499C18.5883 31.7382 19.2139 32.38 19.9895 32.3831H29.1548C29.0535 31.9222 29.0197 31.4482 29.0525 30.9772H20.7562C20.5456 30.9772 20.344 30.8923 20.1951 30.7407C20.0461 30.5891 19.9617 30.3839 19.9617 30.1686V14.8638C19.9617 14.6496 20.0461 14.4444 20.1951 14.2928C20.3441 14.1412 20.5457 14.0553 20.7562 14.0553H22.8407L22.8417 12.6585L19.9895 12.6583ZM21.5506 29.36H29.0525V25.5092C29.0535 24.5147 29.6771 23.6324 30.6037 23.315V15.6722H29.1955C28.9542 16.227 28.4179 16.5879 27.8211 16.5959H24.3284C23.7306 16.6 23.1894 16.2351 22.959 15.6722H21.5508L21.5506 29.36ZM32.1925 23.1979H33.565V14.0834C33.564 13.2971 32.9383 12.6593 32.1657 12.6583H29.3135V14.0551H31.398C31.6085 14.0551 31.8111 14.141 31.96 14.2926C32.109 14.4442 32.1924 14.6494 32.1924 14.8636L32.1925 23.1979ZM24.4306 14.9789H27.7206C27.7176 14.9304 27.7186 14.8819 27.7246 14.8334V11.6173H24.4305L24.4306 14.9789ZM32.7249 31.9898H31.8241C31.3892 31.9827 31.0406 31.6229 31.0406 31.1812C31.0406 30.7386 31.3892 30.3787 31.8241 30.3727H32.7249C33.1588 30.3788 33.5084 30.7386 33.5084 31.1812C33.5084 31.6229 33.1588 31.9827 32.7249 31.9898ZM34.3595 28.0774C33.4737 28.0825 31.3822 27.5155 32.0843 26.24C32.2095 26.0672 32.3962 25.9519 32.6047 25.9196C32.8133 25.8873 33.0248 25.9408 33.1946 26.0682C33.8868 26.5887 34.8312 26.5887 35.5224 26.0682C35.6922 25.9408 35.9048 25.8873 36.1133 25.9196C36.3218 25.9519 36.5086 26.0672 36.6337 26.24C37.3358 27.5165 35.2454 28.0805 34.3595 28.0774ZM27.9948 22.3024H24.1595C23.7245 22.2964 23.3759 21.9366 23.3759 21.4939C23.3759 21.0522 23.7245 20.6914 24.1595 20.6853H27.9948C28.4298 20.6914 28.7784 21.0522 28.7784 21.4939C28.7784 21.9366 28.4298 22.2964 27.9948 22.3024ZM27.9948 19.7353H24.1595C23.7245 19.7292 23.3759 19.3694 23.3759 18.9267C23.3759 18.4851 23.7245 18.1252 24.1595 18.1182H27.9948C28.4298 18.1242 28.7794 18.4851 28.7794 18.9267C28.7794 19.3694 28.4298 19.7292 27.9948 19.7353Z" fill="white"/>
<path d="M12.4023 46H11.2227V40.3633H12.4023V46ZM13.2422 46V41.8125H14.3438V42.5586H14.3672C14.5898 42.0391 15.0312 41.7344 15.6758 41.7344C16.6055 41.7344 17.1289 42.3203 17.1289 43.3008V46H15.9883V43.5391C15.9883 42.9922 15.7305 42.6797 15.2188 42.6797C14.707 42.6797 14.3828 43.0547 14.3828 43.5977V46H13.2422ZM21.6562 41.8125L20.2188 46H18.9297L17.4805 41.8125H18.7031L19.5742 44.9922H19.5977L20.4648 41.8125H21.6562ZM23.8164 42.5664C23.3164 42.5664 22.957 42.9453 22.918 43.4688H24.6953C24.6719 42.9336 24.3242 42.5664 23.8164 42.5664ZM24.7109 44.7188H25.7578C25.6328 45.5391 24.8828 46.0898 23.8477 46.0898C22.5586 46.0898 21.7852 45.2656 21.7852 43.9258C21.7852 42.5898 22.5664 41.7227 23.8047 41.7227C25.0234 41.7227 25.793 42.5469 25.793 43.8203V44.168H22.9062V44.2383C22.9062 44.8359 23.2852 45.2461 23.8672 45.2461C24.2852 45.2461 24.6055 45.0391 24.7109 44.7188ZM26.3828 46V41.8125H27.4844V42.5586H27.5078C27.7305 42.0391 28.1719 41.7344 28.8164 41.7344C29.7461 41.7344 30.2695 42.3203 30.2695 43.3008V46H29.1289V43.5391C29.1289 42.9922 28.8711 42.6797 28.3594 42.6797C27.8477 42.6797 27.5234 43.0547 27.5234 43.5977V46H26.3828ZM31.2969 40.8477H32.4375V41.8125H33.2109V42.6719H32.4375V44.6758C32.4375 44.9961 32.5938 45.1484 32.9297 45.1484C33.0312 45.1484 33.1367 45.1406 33.207 45.1289V45.9688C33.0898 45.9961 32.8945 46.0156 32.6641 46.0156C31.6797 46.0156 31.2969 45.6875 31.2969 44.8711V42.6719H30.707V41.8125H31.2969V40.8477ZM35.6953 46.0898C34.4297 46.0898 33.6211 45.2773 33.6211 43.9023C33.6211 42.5469 34.4414 41.7227 35.6953 41.7227C36.9492 41.7227 37.7695 42.543 37.7695 43.9023C37.7695 45.2812 36.9609 46.0898 35.6953 46.0898ZM35.6953 45.2188C36.2539 45.2188 36.6094 44.7461 36.6094 43.9062C36.6094 43.0742 36.25 42.5938 35.6953 42.5938C35.1406 42.5938 34.7773 43.0742 34.7773 43.9062C34.7773 44.7461 35.1328 45.2188 35.6953 45.2188ZM38.3594 46V41.8125H39.4609V42.5664H39.4844C39.6328 42.0352 39.9883 41.7461 40.4805 41.7461C40.6133 41.7461 40.7266 41.7656 40.8047 41.7891V42.793C40.7109 42.7539 40.5547 42.7266 40.3906 42.7266C39.8281 42.7266 39.5 43.0703 39.5 43.6602V46H38.3594ZM41.8086 47.5508C41.7695 47.5508 41.4141 47.5469 41.3789 47.5391V46.6602C41.4141 46.668 41.6211 46.668 41.6641 46.668C42.082 46.668 42.2891 46.5352 42.3672 46.2031C42.3672 46.1875 42.4102 46.0195 42.4023 46.0039L40.9453 41.8125H42.1992L43.0898 45.0859H43.1094L44 41.8125H45.2031L43.7617 46.0938C43.4023 47.168 42.8789 47.5508 41.8086 47.5508Z" fill="white"/>
</svg>
