<svg width="40" height="40" viewBox="0 0 40 40" fill="none" xmlns="http://www.w3.org/2000/svg">
<rect width="40" height="40" rx="4" fill="#FCF5F1"/>
<path d="M23.5852 17.2395H24.5081V21.44H27.1023V13.6345L16.4052 6.45801L5.70801 13.6345V29.5679H8.30224V17.2392L23.5852 17.2395ZM8.39 15.5145H24.4215V16.3166H8.39V15.5145ZM11.4478 26.0443H12.7478V29.5682H9.22504V26.0443H10.525V26.6584C10.525 26.9124 10.7324 27.1198 10.9864 27.1198C11.2416 27.1198 11.4478 26.9124 11.4478 26.6584V26.0443ZM11.4478 21.5999H12.7478V25.1214H9.22504V21.5999H10.525V22.214C10.525 22.468 10.7324 22.6754 10.9864 22.6754C11.2416 22.6754 11.4478 22.468 11.4478 22.214V21.5999ZM15.8946 26.0443H17.1945V29.5682H13.6718V26.0443H14.9718V26.6584C14.9718 26.9124 15.1791 27.1198 15.4332 27.1198C15.6872 27.1198 15.8946 26.9124 15.8946 26.6584V26.0443ZM34.1955 27.596L31.403 23.9831C31.3153 23.8692 31.1809 23.8031 31.0373 23.8031H29.1289V22.8244C29.1289 22.5704 28.9227 22.363 28.6675 22.363H19.4482C19.193 22.363 18.9868 22.5704 18.9868 22.8244V31.9002C18.9868 32.1554 19.193 32.3617 19.4482 32.3617H20.7288C20.9282 33.043 21.5594 33.542 22.3056 33.542C23.0518 33.542 23.6831 33.043 23.8824 32.3617H29.6703C29.8696 33.043 30.5008 33.542 31.2471 33.542C31.9933 33.542 32.6245 33.043 32.8239 32.3617H33.8276C34.0817 32.3617 34.289 32.1554 34.289 31.9002L34.2925 27.8784C34.2913 27.7759 34.257 27.6769 34.1955 27.596ZM22.3066 32.6194C21.909 32.6194 21.5854 32.297 21.5854 31.8993C21.5854 31.5017 21.909 31.1781 22.3066 31.1781C22.7042 31.1781 23.0278 31.5017 23.0278 31.8993C23.0278 32.297 22.7042 32.6194 22.3066 32.6194ZM31.2479 32.6194C30.8503 32.6194 30.5267 32.297 30.5267 31.8993C30.5267 31.5017 30.8503 31.1781 31.2479 31.1781C31.6455 31.1781 31.9691 31.5017 31.9691 31.8993C31.9703 32.297 31.6455 32.6194 31.2479 32.6194ZM29.1288 27.4172V24.7261H30.8104L32.8897 27.4172H29.1288Z" fill="#FD6405"/>
</svg>
