<svg width="40" height="40" viewBox="0 0 40 40" fill="none" xmlns="http://www.w3.org/2000/svg">
<rect width="40" height="40" rx="4" fill="#FCF5F1"/>
<path d="M14.8568 15.7128H18.9281L19.9996 17.1429L21.071 15.7128H25.1423C25.378 15.7128 25.5709 15.52 25.5709 15.2843V8.42849C25.5709 8.19282 25.378 8 25.1423 8H14.8568C14.6211 8 14.4282 8.19282 14.4282 8.42849V15.2843C14.4282 15.52 14.6211 15.7128 14.8568 15.7128ZM15.7139 9.28547H24.2852V10.1424H15.7139V9.28547ZM15.7139 11.4279H24.2852V12.2849H15.7139V11.4279ZM15.7139 13.5704H21.7138V14.4273H15.7139V13.5704Z" fill="#FD6405"/>
<path d="M23.4287 16.5699V24.3362C24.3448 24.5719 24.8965 25.5039 24.6608 26.4198C24.6233 26.5697 24.5644 26.7143 24.484 26.8536H29.4286V16.1414C29.4286 15.9057 29.2357 15.7129 29 15.7129H26.3537C26.1715 16.2271 25.684 16.5699 25.143 16.5699H23.4287Z" fill="#FD6405"/>
<path d="M31.2121 27.7106H17.4284V26.8536H22.9997C23.4712 26.8536 23.8569 26.468 23.8569 25.9966C23.8569 25.5253 23.4712 25.1396 22.9997 25.1396H17.7123C17.3695 25.1396 17.0427 25.2736 16.8016 25.5146L15.6606 26.6554C15.2588 27.0571 14.7124 27.2821 14.1445 27.2821H8V30.71H14.5785C14.8088 30.71 15.0392 30.7475 15.2588 30.8225L17.3748 31.5295C19.0944 32.1026 20.948 32.1562 22.6944 31.6687L31.421 29.2639C31.8389 29.146 32.0853 28.7122 31.9728 28.2944C31.8764 27.9463 31.5656 27.7106 31.2121 27.7106Z" fill="#FD6405"/>
<path d="M15.714 16.5699H14.8568C14.3104 16.5699 13.8283 16.2271 13.6461 15.7129H13.1426V19.9978H15.714V16.5699Z" fill="#FD6405"/>
<path d="M15.0551 26.0502L16.1962 24.9093C16.598 24.5076 17.1444 24.2827 17.7122 24.2827H22.5711V16.5699H21.4997L19.9997 18.5677L18.4997 16.5699H16.5712V20.8548H12.2855V15.7129H10.9999C10.7641 15.7129 10.5713 15.9057 10.5713 16.1414V26.4251H14.1444C14.4873 26.4251 14.8141 26.2912 15.0551 26.0502Z" fill="#FD6405"/>
</svg>
