<svg width="40" height="40" viewBox="0 0 40 40" fill="none" xmlns="http://www.w3.org/2000/svg">
<rect width="40" height="40" rx="4" fill="#FCF5F1"/>
<path d="M29.3952 32H11.9893C10.3367 31.9949 9 30.6305 9 28.9498V12.0832C9.00199 10.4045 10.3387 9.04307 11.9893 9.041H14.917C15.1186 8.42146 15.6866 8.00202 16.3282 8H19.8259C20.4674 8.00202 21.0355 8.42146 21.2371 9.041H24.1658C25.8154 9.04302 27.152 10.4044 27.1541 12.0832V21.1977H29.3955C30.6488 21.1998 31.6647 22.2337 31.6667 23.5092V29.6966C31.6627 30.9701 30.6468 32 29.3955 32L29.3952 32ZM22.6413 29.6966C22.6423 30.0756 22.9432 30.3819 23.3156 30.3829H29.3953C29.7697 30.3849 30.0746 30.0777 30.0775 29.6966V23.5092C30.0765 23.1262 29.7717 22.8159 29.3953 22.8149H23.3156C23.1428 22.8149 22.977 22.8836 22.8528 23.0069C22.7168 23.1373 22.6403 23.3192 22.6413 23.5092L22.6413 29.6966ZM11.9895 10.6583C11.2169 10.6593 10.5902 11.2971 10.5893 12.0834V28.9499C10.5883 29.7382 11.2139 30.38 11.9895 30.3831H21.1548C21.0535 29.9222 21.0197 29.4482 21.0525 28.9772H12.7562C12.5456 28.9772 12.344 28.8923 12.1951 28.7407C12.0461 28.5891 11.9617 28.3839 11.9617 28.1686V12.8638C11.9617 12.6496 12.0461 12.4444 12.1951 12.2928C12.3441 12.1412 12.5457 12.0553 12.7562 12.0553H14.8407L14.8417 10.6585L11.9895 10.6583ZM13.5506 27.36H21.0525V23.5092C21.0535 22.5147 21.6771 21.6324 22.6037 21.315V13.6722H21.1955C20.9542 14.227 20.4179 14.5879 19.8211 14.5959H16.3284C15.7306 14.6 15.1894 14.2351 14.959 13.6722H13.5508L13.5506 27.36ZM24.1925 21.1979H25.565V12.0834C25.564 11.2971 24.9383 10.6593 24.1657 10.6583H21.3135V12.0551H23.398C23.6085 12.0551 23.8111 12.141 23.96 12.2926C24.109 12.4442 24.1924 12.6494 24.1924 12.8636L24.1925 21.1979ZM16.4306 12.9789H19.7206C19.7176 12.9304 19.7186 12.8819 19.7246 12.8334V9.61726H16.4305L16.4306 12.9789ZM24.7249 29.9898H23.8241C23.3892 29.9827 23.0406 29.6229 23.0406 29.1812C23.0406 28.7386 23.3892 28.3787 23.8241 28.3727H24.7249C25.1588 28.3788 25.5084 28.7386 25.5084 29.1812C25.5084 29.6229 25.1588 29.9827 24.7249 29.9898ZM26.3595 26.0774C25.4737 26.0825 23.3822 25.5155 24.0843 24.24C24.2095 24.0672 24.3962 23.9519 24.6047 23.9196C24.8133 23.8873 25.0248 23.9408 25.1946 24.0682C25.8868 24.5887 26.8312 24.5887 27.5224 24.0682C27.6922 23.9408 27.9048 23.8873 28.1133 23.9196C28.3218 23.9519 28.5086 24.0672 28.6337 24.24C29.3358 25.5165 27.2454 26.0805 26.3595 26.0774ZM19.9948 20.3024H16.1595C15.7245 20.2964 15.3759 19.9366 15.3759 19.4939C15.3759 19.0522 15.7245 18.6914 16.1595 18.6853H19.9948C20.4298 18.6914 20.7784 19.0522 20.7784 19.4939C20.7784 19.9366 20.4298 20.2964 19.9948 20.3024ZM19.9948 17.7353H16.1595C15.7245 17.7292 15.3759 17.3694 15.3759 16.9267C15.3759 16.4851 15.7245 16.1252 16.1595 16.1182H19.9948C20.4298 16.1242 20.7794 16.4851 20.7794 16.9267C20.7794 17.3694 20.4298 17.7292 19.9948 17.7353Z" fill="#FD6405"/>
</svg>
