<svg width="56" height="56" viewBox="0 0 56 56" fill="none" xmlns="http://www.w3.org/2000/svg">
<path d="M22.8568 17.7128H26.9281L27.9996 19.1429L29.071 17.7128H33.1423C33.378 17.7128 33.5709 17.52 33.5709 17.2843V10.4285C33.5709 10.1928 33.378 10 33.1423 10H22.8568C22.6211 10 22.4282 10.1928 22.4282 10.4285V17.2843C22.4282 17.52 22.6211 17.7128 22.8568 17.7128ZM23.7139 11.2855H32.2852V12.1424H23.7139V11.2855ZM23.7139 13.4279H32.2852V14.2849H23.7139V13.4279ZM23.7139 15.5704H29.7138V16.4273H23.7139V15.5704Z" fill="white"/>
<path d="M31.4285 18.5697V26.3361C32.3445 26.5718 32.8963 27.5037 32.6606 28.4196C32.6231 28.5696 32.5642 28.7142 32.4838 28.8535H37.4284V18.1413C37.4284 17.9056 37.2355 17.7128 36.9998 17.7128H34.3534C34.1713 18.227 33.6838 18.5697 33.1427 18.5697H31.4285Z" fill="white"/>
<path d="M39.2121 29.7105H25.4284V28.8535H30.9997C31.4712 28.8535 31.8569 28.4679 31.8569 27.9966C31.8569 27.5252 31.4712 27.1396 30.9997 27.1396H25.7123C25.3695 27.1396 25.0427 27.2735 24.8016 27.5145L23.6606 28.6554C23.2588 29.0571 22.7124 29.282 22.1445 29.282H16V32.7099H22.5785C22.8088 32.7099 23.0392 32.7474 23.2588 32.8224L25.3748 33.5294C27.0944 34.1025 28.948 34.1561 30.6944 33.6687L39.421 31.2638C39.8389 31.146 40.0853 30.7121 39.9728 30.2943C39.8764 29.9462 39.5656 29.7105 39.2121 29.7105Z" fill="white"/>
<path d="M23.7142 18.5697H22.8571C22.3107 18.5697 21.8285 18.227 21.6464 17.7128H21.1428V21.9977H23.7142V18.5697Z" fill="white"/>
<path d="M23.0551 28.0501L24.1962 26.9092C24.598 26.5075 25.1444 26.2825 25.7122 26.2825H30.5711V18.5697H29.4997L27.9997 20.5676L26.4997 18.5697H24.5712V22.8546H20.2855V17.7128H18.9999C18.7641 17.7128 18.5713 17.9056 18.5713 18.1413V28.425H22.1444C22.4873 28.425 22.8141 28.2911 23.0551 28.0501Z" fill="white"/>
<path d="M4.82031 40.3633H7.11328C8.26953 40.3633 9.06641 41.1328 9.06641 42.293C9.06641 43.4492 8.24219 44.2227 7.05469 44.2227H6V46H4.82031V40.3633ZM6 41.2969V43.3008H6.79688C7.47266 43.3008 7.86719 42.9414 7.86719 42.2969C7.86719 41.6562 7.47656 41.2969 6.80078 41.2969H6ZM9.66797 46V41.8125H10.7695V42.5664H10.793C10.9414 42.0352 11.2969 41.7461 11.7891 41.7461C11.9219 41.7461 12.0352 41.7656 12.1133 41.7891V42.793C12.0195 42.7539 11.8633 42.7266 11.6992 42.7266C11.1367 42.7266 10.8086 43.0703 10.8086 43.6602V46H9.66797ZM14.3633 46.0898C13.0977 46.0898 12.2891 45.2773 12.2891 43.9023C12.2891 42.5469 13.1094 41.7227 14.3633 41.7227C15.6172 41.7227 16.4375 42.543 16.4375 43.9023C16.4375 45.2812 15.6289 46.0898 14.3633 46.0898ZM14.3633 45.2188C14.9219 45.2188 15.2773 44.7461 15.2773 43.9062C15.2773 43.0742 14.918 42.5938 14.3633 42.5938C13.8086 42.5938 13.4453 43.0742 13.4453 43.9062C13.4453 44.7461 13.8008 45.2188 14.3633 45.2188ZM20.832 43.3711H19.7734C19.707 42.9297 19.4141 42.6172 18.9453 42.6172C18.3828 42.6172 18.0312 43.0938 18.0312 43.9023C18.0312 44.7266 18.3828 45.1953 18.9492 45.1953C19.4062 45.1953 19.7031 44.9219 19.7734 44.4648H20.8359C20.7773 45.4531 20.0391 46.0898 18.9375 46.0898C17.6758 46.0898 16.875 45.2695 16.875 43.9023C16.875 42.5586 17.6758 41.7227 18.9297 41.7227C20.0625 41.7227 20.7812 42.4219 20.832 43.3711ZM25.2539 41.8125V46H24.1523V45.2461H24.1289C23.9219 45.7734 23.5078 46.0781 22.875 46.0781C21.9688 46.0781 21.3672 45.4883 21.3672 44.5117V41.8125H22.5078V44.2734C22.5078 44.832 22.7852 45.1289 23.2891 45.1289C23.7969 45.1289 24.1133 44.7656 24.1133 44.2109V41.8125H25.2539ZM25.9961 46V41.8125H27.0977V42.5664H27.1211C27.2695 42.0352 27.625 41.7461 28.1172 41.7461C28.25 41.7461 28.3633 41.7656 28.4414 41.7891V42.793C28.3477 42.7539 28.1914 42.7266 28.0273 42.7266C27.4648 42.7266 27.1367 43.0703 27.1367 43.6602V46H25.9961ZM30.6484 42.5664C30.1484 42.5664 29.7891 42.9453 29.75 43.4688H31.5273C31.5039 42.9336 31.1562 42.5664 30.6484 42.5664ZM31.543 44.7188H32.5898C32.4648 45.5391 31.7148 46.0898 30.6797 46.0898C29.3906 46.0898 28.6172 45.2656 28.6172 43.9258C28.6172 42.5898 29.3984 41.7227 30.6367 41.7227C31.8555 41.7227 32.625 42.5469 32.625 43.8203V44.168H29.7383V44.2383C29.7383 44.8359 30.1172 45.2461 30.6992 45.2461C31.1172 45.2461 31.4375 45.0391 31.543 44.7188ZM33.2148 46V41.8125H34.3164V42.5703H34.3398C34.5156 42.0664 34.9648 41.7344 35.5352 41.7344C36.1406 41.7344 36.5625 42.0469 36.7031 42.5938H36.7266C36.9141 42.0664 37.4141 41.7344 38.0273 41.7344C38.8477 41.7344 39.3984 42.2969 39.3984 43.1406V46H38.2578V43.4258C38.2578 42.9414 38.0156 42.6758 37.5742 42.6758C37.1406 42.6758 36.8555 42.9922 36.8555 43.457V46H35.7578V43.3906C35.7578 42.9414 35.5039 42.6758 35.082 42.6758C34.6484 42.6758 34.3555 43.0039 34.3555 43.4727V46H33.2148ZM42 42.5664C41.5 42.5664 41.1406 42.9453 41.1016 43.4688H42.8789C42.8555 42.9336 42.5078 42.5664 42 42.5664ZM42.8945 44.7188H43.9414C43.8164 45.5391 43.0664 46.0898 42.0312 46.0898C40.7422 46.0898 39.9688 45.2656 39.9688 43.9258C39.9688 42.5898 40.75 41.7227 41.9883 41.7227C43.207 41.7227 43.9766 42.5469 43.9766 43.8203V44.168H41.0898V44.2383C41.0898 44.8359 41.4688 45.2461 42.0508 45.2461C42.4688 45.2461 42.7891 45.0391 42.8945 44.7188ZM44.5664 46V41.8125H45.668V42.5586H45.6914C45.9141 42.0391 46.3555 41.7344 47 41.7344C47.9297 41.7344 48.4531 42.3203 48.4531 43.3008V46H47.3125V43.5391C47.3125 42.9922 47.0547 42.6797 46.543 42.6797C46.0312 42.6797 45.707 43.0547 45.707 43.5977V46H44.5664ZM49.4805 40.8477H50.6211V41.8125H51.3945V42.6719H50.6211V44.6758C50.6211 44.9961 50.7773 45.1484 51.1133 45.1484C51.2148 45.1484 51.3203 45.1406 51.3906 45.1289V45.9688C51.2734 45.9961 51.0781 46.0156 50.8477 46.0156C49.8633 46.0156 49.4805 45.6875 49.4805 44.8711V42.6719H48.8906V41.8125H49.4805V40.8477Z" fill="white"/>
</svg>
