<svg width="56" height="56" viewBox="0 0 56 56" fill="none" xmlns="http://www.w3.org/2000/svg">
<path d="M31.7312 19.2394H32.6541V23.44H35.2483V15.6344L24.5512 8.45792L13.854 15.6344V31.5678H16.4482V19.2391L31.7312 19.2394ZM16.536 17.5144H32.5675V18.3165H16.536V17.5144ZM19.5938 28.0442H20.8938V31.5681H17.371V28.0442H18.671V28.6583C18.671 28.9124 18.8784 29.1197 19.1324 29.1197C19.3876 29.1197 19.5938 28.9123 19.5938 28.6583V28.0442ZM19.5938 23.5998H20.8938V27.1213H17.371V23.5998H18.671V24.2139C18.671 24.4679 18.8784 24.6753 19.1324 24.6753C19.3876 24.6753 19.5938 24.4679 19.5938 24.2139V23.5998ZM24.0406 28.0442H25.3405V31.5681H21.8178V28.0442H23.1177V28.6583C23.1177 28.9124 23.3251 29.1197 23.5792 29.1197C23.8332 29.1197 24.0406 28.9123 24.0406 28.6583V28.0442ZM42.3415 29.5959L39.549 25.9831C39.4613 25.8691 39.3269 25.803 39.1833 25.803H37.2749V24.8244C37.2749 24.5703 37.0687 24.3629 36.8135 24.3629H27.5942C27.339 24.3629 27.1328 24.5703 27.1328 24.8244V33.9001C27.1328 34.1554 27.339 34.3616 27.5942 34.3616H28.8748C29.0742 35.0429 29.7054 35.5419 30.4516 35.5419C31.1978 35.5419 31.8291 35.0429 32.0284 34.3616H37.8163C38.0156 35.0429 38.6468 35.5419 39.3931 35.5419C40.1393 35.5419 40.7705 35.0429 40.9699 34.3616H41.9736C42.2277 34.3616 42.435 34.1553 42.435 33.9001L42.4384 29.8784C42.4373 29.7758 42.403 29.6768 42.3415 29.5959ZM30.4526 34.6193C30.0549 34.6193 29.7314 34.2969 29.7314 33.8992C29.7314 33.5016 30.0549 33.178 30.4526 33.178C30.8502 33.178 31.1738 33.5016 31.1738 33.8992C31.1738 34.2969 30.8502 34.6193 30.4526 34.6193ZM39.3939 34.6193C38.9963 34.6193 38.6727 34.2969 38.6727 33.8992C38.6727 33.5016 38.9963 33.178 39.3939 33.178C39.7915 33.178 40.1151 33.5016 40.1151 33.8992C40.1163 34.2969 39.7915 34.6193 39.3939 34.6193ZM37.2748 29.4171V26.726H38.9564L41.0357 29.4171H37.2748Z" fill="white"/>
<path d="M11.2227 42.1484L10.1523 46H9.03906L7.54688 40.3633H8.76953L9.65625 44.4453H9.6875L10.7422 40.3633H11.7383L12.793 44.4453H12.8242L13.7148 40.3633H14.9375L13.4414 46H12.3281L11.2578 42.1484H11.2227ZM16.5625 45.2422C17.0586 45.2422 17.4688 44.918 17.4688 44.4648V44.1602L16.5859 44.2148C16.1602 44.2461 15.918 44.4375 15.918 44.7344C15.918 45.0469 16.1758 45.2422 16.5625 45.2422ZM16.1875 46.0664C15.3906 46.0664 14.7852 45.5508 14.7852 44.7969C14.7852 44.0352 15.3711 43.5938 16.4141 43.5312L17.4688 43.4688V43.1914C17.4688 42.8008 17.1953 42.5742 16.7656 42.5742C16.3398 42.5742 16.0703 42.7852 16.0156 43.0938H14.9727C15.0156 42.2812 15.707 41.7227 16.8164 41.7227C17.8906 41.7227 18.5898 42.2773 18.5898 43.1211V46H17.4883V45.3594H17.4648C17.2305 45.8047 16.7109 46.0664 16.1875 46.0664ZM19.3281 46V41.8125H20.4297V42.5664H20.4531C20.6016 42.0352 20.957 41.7461 21.4492 41.7461C21.582 41.7461 21.6953 41.7656 21.7734 41.7891V42.793C21.6797 42.7539 21.5234 42.7266 21.3594 42.7266C20.7969 42.7266 20.4688 43.0703 20.4688 43.6602V46H19.3281ZM23.9805 42.5664C23.4805 42.5664 23.1211 42.9453 23.082 43.4688H24.8594C24.8359 42.9336 24.4883 42.5664 23.9805 42.5664ZM24.875 44.7188H25.9219C25.7969 45.5391 25.0469 46.0898 24.0117 46.0898C22.7227 46.0898 21.9492 45.2656 21.9492 43.9258C21.9492 42.5898 22.7305 41.7227 23.9688 41.7227C25.1875 41.7227 25.957 42.5469 25.957 43.8203V44.168H23.0703V44.2383C23.0703 44.8359 23.4492 45.2461 24.0312 45.2461C24.4492 45.2461 24.7695 45.0391 24.875 44.7188ZM26.5742 46V40.3633H27.6953V42.5586H27.7188C27.9414 42.0312 28.3984 41.7344 29.0352 41.7344C29.9648 41.7344 30.4961 42.3359 30.4961 43.3047V46H29.3555V43.5469C29.3555 43.0078 29.0898 42.6797 28.5703 42.6797C28.0312 42.6797 27.7148 43.0586 27.7148 43.6094V46H26.5742ZM33.1484 46.0898C31.8828 46.0898 31.0742 45.2773 31.0742 43.9023C31.0742 42.5469 31.8945 41.7227 33.1484 41.7227C34.4023 41.7227 35.2227 42.543 35.2227 43.9023C35.2227 45.2812 34.4141 46.0898 33.1484 46.0898ZM33.1484 45.2188C33.707 45.2188 34.0625 44.7461 34.0625 43.9062C34.0625 43.0742 33.7031 42.5938 33.1484 42.5938C32.5938 42.5938 32.2305 43.0742 32.2305 43.9062C32.2305 44.7461 32.5859 45.2188 33.1484 45.2188ZM39.6797 41.8125V46H38.5781V45.2461H38.5547C38.3477 45.7734 37.9336 46.0781 37.3008 46.0781C36.3945 46.0781 35.793 45.4883 35.793 44.5117V41.8125H36.9336V44.2734C36.9336 44.832 37.2109 45.1289 37.7148 45.1289C38.2227 45.1289 38.5391 44.7656 38.5391 44.2109V41.8125H39.6797ZM40.3516 43.043C40.3516 42.2461 41.043 41.7227 42.1172 41.7227C43.168 41.7227 43.8516 42.2539 43.8672 43.0664H42.8164C42.793 42.7305 42.5234 42.5234 42.1016 42.5234C41.707 42.5234 41.4492 42.7031 41.4492 42.9727C41.4492 43.1797 41.6289 43.3203 41.9961 43.4062L42.7969 43.5781C43.6367 43.7656 43.9766 44.0977 43.9766 44.7227C43.9766 45.5469 43.2188 46.0898 42.1133 46.0898C40.9961 46.0898 40.3086 45.5508 40.2461 44.7344H41.3594C41.4141 45.0859 41.6914 45.2891 42.1445 45.2891C42.5781 45.2891 42.8398 45.1172 42.8398 44.8438C42.8398 44.6328 42.6992 44.5156 42.3242 44.4258L41.5508 44.2539C40.7578 44.0742 40.3516 43.6602 40.3516 43.043ZM46.4258 42.5664C45.9258 42.5664 45.5664 42.9453 45.5273 43.4688H47.3047C47.2812 42.9336 46.9336 42.5664 46.4258 42.5664ZM47.3203 44.7188H48.3672C48.2422 45.5391 47.4922 46.0898 46.457 46.0898C45.168 46.0898 44.3945 45.2656 44.3945 43.9258C44.3945 42.5898 45.1758 41.7227 46.4141 41.7227C47.6328 41.7227 48.4023 42.5469 48.4023 43.8203V44.168H45.5156V44.2383C45.5156 44.8359 45.8945 45.2461 46.4766 45.2461C46.8945 45.2461 47.2148 45.0391 47.3203 44.7188Z" fill="white"/>
</svg>
